<svg xmlns="http://www.w3.org/2000/svg" version="1.1" xmlns:xlink="http://www.w3.org/1999/xlink" width="1000" height="1000"><metadata><rdf:RDF xmlns:rdf="http://www.w3.org/1999/02/22-rdf-syntax-ns#" xmlns:dc="http://purl.org/dc/elements/1.1/"><rdf:Description><dc:creator>RealFaviconGenerator</dc:creator><dc:source>https://realfavicongenerator.net</dc:source></rdf:Description></rdf:RDF></metadata><g clip-path="url(#SvgjsClipPath1078)"><rect width="1000" height="1000" fill="#ffffff"></rect><g transform="matrix(1.3248927727016444,0,0,1.3248927727016444,144.46121537879225,100)"><svg xmlns="http://www.w3.org/2000/svg" version="1.1" xmlns:xlink="http://www.w3.org/1999/xlink" width="536.70575" height="603.82245" viewBox="0 0 142.00339 159.76135" id="svg1" xml:space="preserve" xmlns:svg="http://www.w3.org/2000/svg"><defs id="defs1"><linearGradient id="linearGradient5"><stop style="stop-color:#2f3a00;stop-opacity:1;" offset="0" id="stop5"></stop><stop style="stop-color:#556c00;stop-opacity:0.70331949;" offset="1" id="stop6"></stop></linearGradient><linearGradient id="linearGradient3"><stop style="stop-color:#86b300;stop-opacity:1;" offset="0" id="stop3"></stop><stop style="stop-color:#002800;stop-opacity:1;" offset="0.71701109" id="stop4"></stop></linearGradient><linearGradient xlink:href="#linearGradient3" id="linearGradient4" x1="81.441505" y1="95.379288" x2="172.03584" y2="95.379288" gradientUnits="userSpaceOnUse" gradientTransform="matrix(1.564522,0,0,1.5843925,-70.806976,-9.8637254)"></linearGradient><linearGradient xlink:href="#linearGradient5" id="linearGradient6" x1="93.769989" y1="85.924469" x2="172.22256" y2="85.924469" gradientUnits="userSpaceOnUse" gradientTransform="matrix(1.564522,0,0,1.5843925,-70.806976,-9.8637254)"></linearGradient><clipPath id="SvgjsClipPath1078"><rect width="1000" height="1000" x="0" y="0" rx="150" ry="150"></rect></clipPath></defs><g id="layer1" transform="translate(-56.610057,-46.193231)"><path id="rect1" style="fill:url(#linearGradient6);stroke:#4a4a4a;stroke-width:3.49072e-08" d="m 78.820105,46.958867 -0.503676,0.008 -0.136669,0.02351 -0.08417,0.02597 -0.07497,0.03653 -0.08063,0.04553 -0.06476,0.04948 -0.05914,0.06098 -0.06261,0.07761 -0.04286,0.089 -0.03356,0.08439 -0.02222,0.123129 -0.0038,0.559826 V 200.26225 l -0.0027,0.1651 0.0027,3.38584 -0.0039,1.66991 0.0047,0.0404 0.01886,0.0375 0.03153,0.0208 0.05119,0.009 5.158481,-0.001 -0.03307,-0.0959 21.625459,0.1323 9.93633,-4.66954 L 82.911904,200.659 V 52.286522 H 195.64798 l 0.5837,-0.08201 0.55315,-0.148784 0.47361,-0.290533 0.39291,-0.338286 0.33535,-0.377171 0.31093,-0.473444 0.22051,-0.50995 0.0953,-0.534636 -0.12491,-0.600861 -0.26834,-0.474726 -0.31696,-0.429465 -0.38395,-0.391013 -0.003,-1.442412 -0.83173,0.942841 -0.42139,-0.124016 -0.56856,-0.07599 z"></path><path style="fill:url(#linearGradient4);stroke:#4a4a4a;stroke-width:8.7479e-08" d="m 113.30478,76.554424 h 84.74987 l 0.29224,22.492393 C 192.00078,88.274016 191.49587,81.534874 175.07224,81.348995 l -37.21922,-0.05933 v 63.925755 c 4.35176,-6.94464 9.05082,-13.67827 21.04135,-15.98144 9.51982,-1.59654 23.19508,1.98629 23.37926,-11.2462 h 2.33793 v 26.04383 h -2.33793 c -1.08415,-6.0249 -2.65709,-11.8188 -15.19653,-12.43001 -20.201,2.20404 -25.33101,12.73302 -28.63961,24.26811 -0.48749,11.764 -3.22536,22.95828 -9.93618,33.1467 8.72022,10.00787 20.04195,11.44471 32.09972,12.11872 15.56732,0.86353 24.86285,-6.48866 35.11568,-12.71064 -5.07974,7.22638 -13.29046,11.84553 -25.71719,15.98144 -14.831,3.0446 -20.29875,0.91711 -26.88617,-0.5919 -9.2427,-3.2273 -20.16697,-12.21839 -28.63961,-20.12476 -18.886965,-3.3495 -30.985395,-9.08372 -39.744751,-21.90051 -7.85321,-11.6408 -10.824168,-23.2816 -11.689635,-34.9224 1.087521,-8.6085 -2.105593,-17.83629 -6.4293,-27.227635 8.105835,5.707905 18.227074,10.055145 28.639611,14.205725 13.77305,4.76033 21.809105,14.03943 28.639595,24.26811 4.071,14.15801 6.02223,27.45734 2.33793,38.47383 l 7.01379,7.69477 V 88.98443 c 0.60132,-6.974114 -5.39002,-9.179385 -9.9362,-12.430006 z" id="path2"></path><path style="fill:#fcffc2;fill-opacity:0.824373;stroke:#4a4a4a;stroke-width:8.7479e-08" d="m 117.24044,182.66473 c -4.58532,-11.51232 -6.00551,-20.24115 -14.77516,-32.01832 -5.091135,-10.06521 -18.115285,-21.29455 -26.967235,-30.34415 8.1717,10.96279 18.1028,21.60162 23.5576,33.06466 7.348035,9.76595 11.681315,23.80582 18.184795,29.29781 z" id="path3"></path></g></svg></g></g></svg>